<svg width="57" height="56" viewBox="0 0 57 56" fill="none" xmlns="http://www.w3.org/2000/svg">
<path d="M28.947 0C13.484 0 0.947021 12.537 0.947021 28C0.947021 43.463 13.484 56 28.947 56C44.41 56 56.947 43.463 56.947 28C56.947 12.537 44.41 0 28.947 0ZM28.947 1.82C43.4044 1.82 55.1247 13.5403 55.1247 28C55.1247 42.4573 43.4067 54.1777 28.947 54.1777C14.4874 54.1777 2.76935 42.4573 2.76935 28C2.76935 13.5427 14.4897 1.82 28.947 1.82ZM27.365 3.29C26.595 3.32267 25.825 3.388 25.0504 3.472L24.8007 10.3413C25.3501 10.2484 25.9027 10.1752 26.4574 10.122L26.6207 5.48333L26.5904 5.16367L26.6907 5.467L28.24 8.94133H29.654L31.2034 5.46933L31.2967 5.16367L31.2734 5.48333L31.4367 10.122C31.978 10.1733 32.5404 10.248 33.0934 10.3413L32.839 3.472C32.0697 3.38531 31.2977 3.32461 30.5244 3.29L29.0007 7.08167L28.947 7.36167L28.8934 7.08167L27.365 3.29ZM42.989 7.546L39.3887 13.2113C39.8437 13.5613 40.4434 14.077 40.8284 14.4293L44.2187 12.67L44.4333 12.509L44.2724 12.7283L42.5177 16.1187C42.898 16.527 43.4464 17.1873 43.7544 17.5887L49.4244 13.986C49.0766 13.5362 48.7188 13.0943 48.351 12.6607L44.76 15.0267L44.515 15.2413L44.697 14.973L46.2837 11.809L45.1637 10.689L41.9997 12.2757L41.7314 12.4577L41.9437 12.2103L44.319 8.61933C43.899 8.26467 43.5 7.94033 42.989 7.546ZM13.7804 8.83167C12.9404 8.918 12.2917 9.492 10.53 11.4567C9.91914 12.149 9.33008 12.8602 8.76369 13.5893L13.603 18.179C15.206 16.4057 15.857 15.7477 17.1217 14.4153C18.0154 13.4703 18.5217 12.3853 17.6257 11.3423C17.1404 10.7777 16.3237 10.654 15.6424 10.934L15.577 10.9573L15.6004 10.8967C15.6845 10.5871 15.6756 10.2595 15.5748 9.95495C15.4739 9.65037 15.2856 9.38223 15.0334 9.184C14.858 9.04574 14.657 8.94362 14.4419 8.88354C14.2268 8.82347 14.002 8.80663 13.7804 8.834V8.83167ZM13.7944 10.2667C14.1117 10.1803 14.4407 10.4067 14.513 10.7333C14.5877 11.06 14.3824 11.368 14.1537 11.6247C13.6404 12.208 11.748 14.1867 11.748 14.1867L10.81 13.293C11.783 12.103 12.819 11.0203 13.288 10.591C13.4287 10.4443 13.6023 10.3332 13.7944 10.2667ZM28.947 11.3937C24.8366 11.3919 20.8717 12.9152 17.8199 15.6687C14.7681 18.4222 12.8465 22.2101 12.427 26.299V26.3037C12.1634 28.8979 12.5139 31.5177 13.4502 33.9513C14.3866 36.385 15.8824 38.5641 17.8169 40.3126C19.7514 42.061 22.0702 43.3297 24.5858 44.016C27.1015 44.7024 29.7433 44.7871 32.2977 44.2633C36.0419 43.4937 39.4057 41.455 41.8205 38.4918C44.2352 35.5285 45.553 31.8225 45.551 28C45.5467 23.5979 43.7959 19.3773 40.6829 16.2648C37.5699 13.1523 33.3491 11.402 28.947 11.3983V11.3937ZM16.0274 11.9583C16.137 11.9583 16.2514 11.9887 16.354 12.0587C16.5594 12.1963 16.6527 12.432 16.6014 12.6653C16.5407 12.943 16.3097 13.2043 16.123 13.4073L13.6847 16.0207L12.7047 15.0873C12.7047 15.0873 14.541 13.146 15.143 12.523C15.381 12.2757 15.535 12.1263 15.6984 12.0447C15.7995 11.9921 15.9111 11.9626 16.025 11.9583H16.0274ZM28.947 13.5753C30.8419 13.5732 32.7186 13.9448 34.4696 14.669C36.2207 15.3931 37.8117 16.4555 39.1516 17.7954C40.4915 19.1353 41.5539 20.7263 42.278 22.4774C43.0022 24.2284 43.3738 26.1051 43.3717 28H28.947V42.4247C27.0521 42.4268 25.1754 42.0552 23.4244 41.331C21.6733 40.6069 20.0823 39.5445 18.7424 38.2046C17.4026 36.8647 16.3401 35.2737 15.616 33.5226C14.8918 31.7716 14.5202 29.8949 14.5224 28H28.947V13.5753Z" fill="#566171"></path>
</svg>