<svg width="70" height="32" viewBox="0 0 70 32" fill="none" xmlns="http://www.w3.org/2000/svg">
<path d="M22.5339 0.0158892C22.5339 0.00146484 16.5628 0.0158892 16.5628 0.0158892C7.72417 0.0158892 0.558838 7.17232 0.558838 15.9999C0.558838 24.8276 7.72417 31.984 16.5628 31.984L27.7899 31.9746C30.6104 31.9746 32.8969 29.7087 32.8969 26.8916L32.9029 17.1425L40.6629 29.3669C41.7124 30.9533 43.5139 31.9998 45.5602 31.9998C48.7995 31.9998 51.4258 29.377 51.4258 26.1415L51.424 17.1424L59.1841 29.3668C60.2335 30.9532 62.035 31.9997 64.0813 31.9997C67.3207 31.9997 69.947 29.3769 69.947 26.1414L69.9452 0.00146484H65.9524V26.1417C65.9524 27.1737 65.1147 28.0103 64.0815 28.0103C63.4356 28.0103 62.8662 27.6837 62.5301 27.1865L48.718 5.45746C48.6324 5.33312 48.5092 5.23938 48.3665 5.18997C48.2237 5.14056 48.0689 5.13806 47.9246 5.18283C47.7804 5.2276 47.6542 5.31731 47.5646 5.43882C47.4751 5.56033 47.4268 5.70728 47.4268 5.85817L47.4312 26.1418C47.4312 27.1738 46.5936 28.0104 45.5603 28.0104C44.9145 28.0104 44.3452 27.6838 44.0089 27.1866L30.1968 5.45746C30.1112 5.33314 29.988 5.23943 29.8453 5.19003C29.7025 5.14064 29.5477 5.13814 29.4034 5.18291C29.2592 5.22768 29.133 5.31737 29.0434 5.43886C28.9538 5.56035 28.9055 5.70728 28.9055 5.85817L28.9024 26.8918C28.9024 27.5055 28.4044 28.0028 27.79 28.0028L16.5629 27.9944C9.93036 27.9943 4.55352 22.6241 4.55352 15.9999C4.55352 9.37577 9.93036 4.00551 16.5628 4.00551L22.5339 4.00111V0.0158892Z" fill="#566171"></path>
<path d="M23.1769 22.8715C23.3278 22.8715 23.4725 22.8116 23.5791 22.7051C23.6858 22.5985 23.7458 22.454 23.7458 22.3033L23.7473 5.85848C23.7472 2.62323 26.3733 0.000244141 29.6127 0.000244141C31.6663 0.000244141 33.4735 1.05435 34.5214 2.65034L42.2545 14.7662L42.2684 5.85858C42.2684 2.62323 44.8944 0.000244141 48.1339 0.000244141C50.1875 0.000244141 51.9946 1.05435 53.0426 2.65034L60.7756 14.7662V0.00198325H64.7958L64.7887 26.1422C64.7886 26.2906 64.7418 26.4352 64.655 26.5556C64.5681 26.6759 64.4455 26.7659 64.3045 26.8128C64.1636 26.8598 64.0114 26.8612 63.8696 26.817C63.7278 26.7727 63.6035 26.6851 63.5144 26.5664L49.6853 4.81379C49.3491 4.31681 48.7797 3.98996 48.1339 3.98996C47.1006 3.98996 46.263 4.82658 46.263 5.85858L46.2675 26.1422C46.2674 26.2906 46.2206 26.4352 46.1337 26.5555C46.0468 26.6759 45.9242 26.7659 45.7832 26.8128C45.6423 26.8597 45.4902 26.8611 45.3483 26.8169C45.2065 26.7727 45.0822 26.685 44.9931 26.5664L31.1642 4.81379C30.8279 4.31681 30.2586 3.98996 29.6127 3.98996C28.5795 3.98996 27.7419 4.82658 27.7419 5.85858L27.7503 26.3029C27.7503 26.4536 27.6903 26.5981 27.5837 26.7047C27.477 26.8112 27.3323 26.8711 27.1814 26.8711L16.5621 26.869C10.5719 26.869 5.71582 21.9832 5.71582 16.0006C5.71582 10.0178 10.5719 5.13194 16.5621 5.13194C16.5621 5.13194 22.5332 5.10872 22.5332 5.13194V9.16187L16.5621 9.15737C12.7781 9.15737 9.7105 12.2212 9.7105 16.0006C9.7105 19.7797 12.7781 22.8792 16.5621 22.8792L23.1769 22.8715Z" fill="#566171"></path>
</svg>