<svg width="57" height="56" viewBox="0 0 57 56" fill="none" xmlns="http://www.w3.org/2000/svg">
<path d="M7.78258 0C3.79354 0 0.558838 3.2347 0.558838 7.22374V48.7763C0.558838 52.7653 3.79354 56 7.78258 56H49.3351C53.3241 56 56.5588 52.7653 56.5588 48.7763V7.22374C56.5588 3.2347 53.3241 0 49.3351 0H7.78258ZM7.78258 3.61826H49.3351C51.3296 3.61826 52.9534 5.24201 52.9534 7.23653V48.789C52.9534 50.7836 51.3296 52.4073 49.3351 52.4073H7.78258C5.78806 52.4073 4.16432 50.7836 4.16432 48.789V7.23653C4.1771 5.22922 5.78806 3.61826 7.78258 3.61826Z" fill="#566171"></path>
<path d="M25.8484 37.9343V41.5526H45.7169V37.9343H25.8484Z" fill="#566171"></path>
<path d="M25.8484 14.4475V33.8685H29.9141V18.0658H33.9799V33.8685H38.0456V18.0658H40.7561C41.5105 18.0658 42.1114 18.6667 42.1114 19.421V33.8685H46.1772V18.9735C46.1772 16.4804 44.1571 14.4603 41.6639 14.4603H25.8484V14.4475Z" fill="#566171"></path>
<path d="M15.467 14.4475C12.9738 14.4475 10.9537 16.4676 10.9537 18.9608V29.3425C10.9537 31.8356 12.9738 33.8557 15.467 33.8557H19.0852V34.7635C19.0852 36.5151 17.4615 37.9215 15.467 37.9215H13.204V41.5525H15.467C19.7117 41.5525 23.1382 38.5224 23.1382 34.7763V14.4475H15.467ZM16.362 18.0658H19.0725V30.263H16.362C15.6076 30.263 15.0067 29.6621 15.0067 28.9078V19.421C15.0067 18.6667 15.6204 18.0658 16.362 18.0658Z" fill="#566171"></path>
</svg>