<svg width="152" height="36" viewBox="0 0 152 36" fill="none" xmlns="http://www.w3.org/2000/svg">
<g clip-path="url(#clip0_374_898)">
<g clip-path="url(#clip1_374_898)">
<path d="M58.2931 18.87L56.2878 18.687C54.9731 18.573 54.4436 18.115 54.4436 17.313C54.4436 16.374 55.2499 15.756 56.8173 15.756C58.2931 15.756 59.031 16.396 59.1457 17.427H63.8489C63.5489 14.382 61.3825 12.229 56.9562 12.229C52.3457 12.229 49.8089 14.565 49.8089 17.656C49.8089 20.542 51.3994 22.122 55.3425 22.443L57.3257 22.603C58.8689 22.718 59.4226 23.244 59.4226 24.16C59.4226 25.122 58.6162 25.832 56.9562 25.832C55.411 25.832 54.4899 25.145 54.3288 23.932H49.371C49.8089 27.252 52.1605 29.45 56.9331 29.45C61.5668 29.45 64.1257 27.092 64.1257 23.908C64.1257 20.817 62.4194 19.237 58.2931 18.87ZM42.0636 12.229C39.1131 12.229 37.3605 13.763 36.531 16.901H36.231V12.504H31.5741V29.176H36.531V19.466C36.531 17.244 37.6836 16.031 39.7583 16.031C41.8099 16.031 42.8246 17.291 42.8246 19.443V29.176H47.7805V18.573C47.7805 14.542 45.6594 12.229 42.0626 12.229H42.0636ZM26.7562 6C25.0731 6 23.8047 7.1 23.8047 8.771C23.8047 10.443 25.0499 11.542 26.7331 11.542C28.4162 11.542 29.6605 10.442 29.6605 8.771C29.6605 7.122 28.4162 6 26.7562 6ZM29.2226 12.504H24.2657V29.176H29.2226V12.504ZM71.9173 8.977H68.7594C68.6668 11.657 67.5142 12.824 64.9321 13.03V16.42H66.9615V23.748C66.9615 27.435 69.0815 29.45 73.3005 29.45C74.0937 29.45 74.884 29.35 75.652 29.153V25.19C75.2562 25.2553 74.8553 25.2857 74.4541 25.281C72.6784 25.281 71.9173 24.617 71.9173 22.762V16.42H76.2752V12.504H71.9173V8.977ZM150.53 16.42V12.504H146.173V8.977H143.06C142.991 10.832 142.438 11.908 141.216 12.504V23.748C141.216 27.435 143.337 29.45 147.556 29.45C148.349 29.45 149.14 29.35 149.908 29.153V25.19C149.512 25.2553 149.11 25.2858 148.709 25.281C146.933 25.281 146.173 24.617 146.173 22.762V16.42H150.53ZM134.3 17.153H134V12.503H129.413V29.176H134.37V20.153C134.37 17.656 135.499 16.603 138.081 16.603C138.519 16.603 139.004 16.649 139.672 16.763V12.458C139.22 12.3005 138.744 12.223 138.266 12.229C136.259 12.229 134.876 13.374 134.3 17.153ZM102.648 25.237C100.319 25.237 98.6363 23.702 98.6363 20.725C98.6363 18.069 100.204 16.42 102.602 16.42C104.653 16.42 105.829 17.565 106.175 19.397H111.2C110.716 15.114 107.628 12.229 102.671 12.229C97.2299 12.229 93.6573 15.893 93.6573 20.909C93.6573 26.107 97.092 29.45 102.602 29.45C107.605 29.45 110.855 26.68 111.316 22.19H106.29C106.014 24.023 104.746 25.237 102.648 25.237ZM84.8741 12.229C80.5626 12.229 77.9583 14.336 77.4963 18.114H82.2457C82.4068 16.809 83.2604 16.122 84.7584 16.122C86.2794 16.122 86.971 16.809 86.971 17.794C86.971 18.618 86.4415 19.054 85.0815 19.305L82.8215 19.718C78.8341 20.45 77.312 22.076 77.312 24.664C77.312 27.618 79.4099 29.474 82.3152 29.474C84.6889 29.474 86.2341 28.374 86.9489 25.626H87.2478V29.176H91.9288V18.298C91.9288 14.519 89.6457 12.229 84.8741 12.229ZM84.3204 26.107C82.9836 26.107 82.2226 25.397 82.2226 24.343C82.2226 23.473 82.7531 22.878 84.0668 22.58L84.9889 22.374C85.7841 22.191 86.4012 21.947 86.972 21.457V23.221C86.972 25.259 85.8878 26.107 84.3204 26.107ZM120.099 12.229C115.788 12.229 113.184 14.336 112.723 18.114H117.471C117.633 16.809 118.486 16.122 119.984 16.122C121.506 16.122 122.197 16.809 122.197 17.794C122.197 18.618 121.667 19.054 120.307 19.305L118.048 19.718C114.059 20.45 112.537 22.076 112.537 24.664C112.537 27.618 114.635 29.474 117.54 29.474C119.915 29.474 121.459 28.374 122.174 25.626H122.474V29.176H127.154V18.298C127.154 14.519 124.871 12.229 120.099 12.229ZM119.546 26.107C118.209 26.107 117.448 25.397 117.448 24.343C117.448 23.473 117.978 22.878 119.292 22.58L120.214 22.374C121.009 22.191 121.628 21.947 122.197 21.457V23.221C122.197 25.259 121.114 26.107 119.546 26.107Z" fill="#566171"></path>
<path d="M15.922 9.9889C14.9033 9.9889 14.1765 10.4299 13.506 11.3879L11.5732 14.1449V6.2749H6.9627V14.1449L5.0299 11.3879C4.36046 10.4299 3.63365 9.9889 2.6139 9.9889C1.07571 9.9889 0.0519297 11.1169 0.0468964 12.5069C0.0428697 13.6969 0.60761 14.4729 1.7985 15.2349L9.26796 20.0149L16.7374 15.2349C17.9283 14.4729 18.4931 13.6969 18.489 12.5069C18.485 11.1169 17.4602 9.9889 15.922 9.9889Z" fill="#566171"></path>
<path d="M9.26767 21.1599C13.7071 21.1599 17.3462 24.4519 17.3361 29.1759H1.19924C1.19018 24.4539 4.82827 21.1599 9.26767 21.1599Z" fill="#566171"></path>
</g>
</g>
<defs>
<clipPath id="clip0_374_898">
<rect width="151" height="36" fill="white" transform="translate(0.046875)"></rect>
</clipPath>
<clipPath id="clip1_374_898">
<rect width="151" height="24" fill="white" transform="translate(0.046875 6)"></rect>
</clipPath>
</defs>
</svg>