<svg width="122" height="24" viewBox="0 0 122 24" fill="none" xmlns="http://www.w3.org/2000/svg">
<path d="M0.94832 19.4395L4.81197 14.9121C7.17721 16.6757 9.86994 17.4188 12.4093 17.4188C13.7115 17.4188 14.2768 17.0791 14.2768 16.5052V16.4416C14.2768 15.8257 13.6036 15.5063 11.2813 15.0393C6.41825 14.062 2.14264 12.7018 2.14264 8.21629V8.15267C2.14264 4.11383 5.3552 0.988632 11.3463 0.988632C15.5361 0.988632 18.6187 1.96589 21.136 3.90006L17.5751 8.70365C15.6775 7.36506 13.4017 6.63713 11.063 6.62061C9.9778 6.62061 9.47746 6.98199 9.47746 7.49226V7.55588C9.47746 8.12849 10.0623 8.49115 12.3651 8.91743C17.9221 9.91632 21.6337 11.4878 21.6337 15.7824V15.8244C21.6337 20.2883 17.865 23.0088 12.061 23.0088C7.65545 23.0305 3.70473 21.8191 0.947021 19.4383L0.94832 19.4395ZM28.8633 7.40954H22.4824V1.39455H42.4959V7.40954H36.115V22.6284H28.8633V7.40954ZM60.4912 15.4007C63.1163 14.146 64.7668 11.9994 64.7668 8.91743V8.8538C64.7668 6.66515 64.0936 5.09109 62.7914 3.8148C61.2709 2.326 58.8186 1.39201 54.9771 1.39201H44.3855V22.6258H51.6371V16.5688H53.1784L57.2591 22.6258H65.5296L60.4912 15.4007ZM57.5385 9.42769C57.5385 10.7256 56.4755 11.4891 54.76 11.4891H51.6358V7.34465H54.8068C56.4781 7.34465 57.5619 8.00379 57.5619 9.3857V9.42769H57.5385ZM75.86 0.5L64.1599 22.6284H71.9314L75.86 14.8917L79.7886 22.6284H87.5601L75.86 0.5ZM110.247 0.5L98.5468 22.6284H106.318L110.247 14.8917L114.176 22.6284H121.947L110.247 0.5ZM93.0535 23.5L104.776 1.37165H97.0042L93.0755 9.1083L89.1248 1.37165H81.3533L93.0535 23.5Z" fill="#566171"></path>
</svg>