<svg width="74" height="56" viewBox="0 0 74 56" fill="none" xmlns="http://www.w3.org/2000/svg">
<path fill-rule="evenodd" clip-rule="evenodd" d="M14.8747 0L12.0027 0.683166C12.13 1.13606 12.2156 2.1529 12.2156 3.18048V15.8217H15.0643V7.98548C15.6907 7.40546 16.5876 6.98123 17.2816 6.98123C18.0822 6.98123 18.3732 7.3869 18.3732 8.47542V15.8218H21.1181V8.17865C21.1181 7.1272 21.0586 6.76399 20.8481 6.1469C20.5102 5.1855 19.4212 4.58737 18.0593 4.58737C16.9675 4.58737 15.7534 5.06152 15.0203 5.766C15.0203 5.63622 15.0643 5.18547 15.0643 4.84647V2.6669C15.0643 1.62075 14.9994 0.598556 14.8747 0ZM0.254517 0.980983V3.45948H3.81282V15.8198H6.79137V3.45948H10.2693L10.7501 0.980983H0.254517ZM27.6933 4.65021C26.2663 4.65021 25.1977 5.12192 24.3191 6.12833C23.373 7.19565 22.9782 8.49594 22.9782 10.4665C22.9782 13.8962 24.9664 16.1182 28.0493 16.1182C29.5543 16.1182 30.854 15.6286 32.0939 14.6062L31.0023 12.895C30.1419 13.6234 29.2398 13.9834 28.278 13.9834C26.8328 13.9834 26.0194 13.0248 26.0194 11.3377V11.2503H32.2188V10.5882C32.2188 8.30252 31.7794 6.83276 30.7969 5.80781C30.1003 5.08213 28.9253 4.65021 27.6933 4.65021ZM27.7346 6.74562C28.2986 6.74562 28.6967 6.96251 28.9696 7.38891C29.2191 7.79149 29.3048 8.22049 29.3048 9.03092V9.15825H26.0556V9.11839C26.0556 7.60348 26.6662 6.74562 27.7346 6.74562ZM48.4568 19.6453L45.587 20.329C45.7118 20.7819 45.7951 21.8015 45.7951 22.8291V35.4675H48.6465V27.6333C49.2704 27.0532 50.1726 26.6268 50.8666 26.6268C51.6646 26.6268 51.9554 27.035 51.9554 28.1182V35.4674H54.6977V27.8214C54.6977 26.7753 54.6356 26.4148 54.4276 25.7897C54.0923 24.8336 53.0029 24.2324 51.6407 24.2324C50.549 24.2324 49.338 24.7037 48.6024 25.4082C48.6024 25.2837 48.6464 24.8335 48.6464 24.4892V22.3124C48.6464 21.2663 48.5789 20.2465 48.4568 19.6453ZM0.149481 20.6263L3.63017 35.5932H6.95979L8.17361 29.5124C8.6181 27.3327 8.87017 25.2431 8.87017 25.2431C8.90656 25.6457 9.11971 27.5655 9.5564 29.5518L10.8588 35.5932H14.0638L17.5828 20.6263H14.5027L13.3049 26.2612C13.0112 27.7152 12.5511 30.7264 12.5121 31.1978C12.5121 31.1978 12.156 28.6555 11.8857 27.2678L10.5387 20.6249H7.33151L6.03457 26.6266C5.59528 28.6739 5.34291 30.7902 5.28313 31.365C5.28313 31.365 5.09361 29.2538 4.50615 26.4755L3.2505 20.6249H0.147034L0.149481 20.6263ZM42.0279 21.2275L39.1764 21.9527C39.0725 22.7605 39.0727 23.4706 39.0727 24.5353H38.0045V26.4951H39.0727V32.433C39.0727 33.4315 39.0932 33.6458 39.2596 34.1199C39.5949 35.084 40.7284 35.722 42.1527 35.722C42.8857 35.722 43.6159 35.5714 44.4347 35.2271L44.0788 33.5242C43.5772 33.6699 43.3247 33.7357 43.0726 33.7357C42.1082 33.7357 41.8588 33.373 41.8588 31.9852V26.4951H43.6605L44.375 24.5353H41.8588C41.8588 23.4229 41.9213 22.226 42.0279 21.2275ZM69.4385 24.2774L66.925 24.9661C67.1564 25.5832 67.3228 26.6955 67.3228 28.1654V35.4698H70.135V27.7394C70.6522 27.1196 71.2214 26.8231 71.853 26.8231C72.1649 26.8231 72.3915 26.8863 72.6696 27.0346L73.4411 24.5135C73.0019 24.3202 72.8125 24.2777 72.3914 24.2777C72.0795 24.2777 71.7051 24.3465 71.4738 24.4498C70.9461 24.6882 70.2804 25.2842 69.8802 25.8377C69.836 25.2233 69.6907 24.7277 69.4385 24.2774ZM32.8513 24.3007C31.8661 24.3007 30.9644 24.4911 29.9195 24.9439C29.1605 25.2591 28.7468 25.4709 28.1775 25.8363L29.3734 27.8919C30.5249 27.1 31.5748 26.6468 32.4741 26.6468C33.5008 26.6468 33.727 27.0548 33.727 28.2678V28.7179C33.5009 28.6994 33.3111 28.6996 33.1005 28.6996C29.6877 28.6996 27.9485 29.8916 27.9485 32.4553C27.9485 34.6324 29.2459 35.8717 31.6401 35.8717C32.516 35.8717 33.2697 35.6574 33.7922 35.276C34.0027 35.1251 34.2315 34.9051 34.442 34.6958C34.7149 35.2547 35.3021 35.742 35.9519 36.0201L37.439 34.2696C36.6203 33.6472 36.4355 33.202 36.4355 32.0313V31.8409L36.4953 28.1643C36.5161 26.9857 36.454 26.6471 36.3111 26.1995C35.89 24.9839 34.6502 24.3007 32.8513 24.3007ZM22.1475 24.3018C20.723 24.3018 19.6571 24.7702 18.7733 25.7766C17.8323 26.8439 17.4345 28.1419 17.4345 30.1097C17.4345 33.5448 19.4257 35.767 22.5034 35.767C24.0136 35.767 25.3134 35.2768 26.5507 34.2545L25.4586 32.5411C24.5983 33.2668 23.7019 33.6295 22.7349 33.6295C21.2923 33.6295 20.4735 32.671 20.4735 30.9866V30.8936H26.678V30.237C26.678 27.9567 26.2388 26.4788 25.2484 25.451C24.5596 24.7279 23.3846 24.3018 22.1475 24.3018ZM60.8545 24.3018C59.4301 24.3018 58.3615 24.7702 57.4804 25.7766C56.5394 26.8439 56.1416 28.1419 56.1416 30.1097C56.1416 33.5448 58.1327 35.767 61.2104 35.767C62.7207 35.767 64.0204 35.2768 65.255 34.2545L64.1656 32.5411C63.3052 33.2668 62.4035 33.6295 61.4392 33.6295C59.9939 33.6295 59.1778 32.671 59.1778 30.9866V30.8936H65.38V30.237C65.38 27.9567 64.9406 26.4788 63.9581 25.451C63.2641 24.7279 62.0917 24.3018 60.8545 24.3018ZM22.192 26.3911C22.7586 26.3911 23.1537 26.6059 23.4318 27.035C23.6814 27.4402 23.7644 27.8665 23.7644 28.677V28.8037H20.5179V28.7644C20.5179 27.2495 21.121 26.3911 22.192 26.3911ZM60.8962 26.3911C61.4603 26.3911 61.8605 26.6059 62.1334 27.035C62.3829 27.4402 62.4692 27.8665 62.4692 28.677V28.8037H59.2194V28.7644C59.2194 27.2495 59.8279 26.3911 60.8962 26.3911ZM33.5659 30.6834H33.6904L33.6464 33.0323C33.2279 33.4984 32.7056 33.7797 32.1832 33.7797C31.4683 33.7797 30.9405 33.202 30.9405 32.3491C30.9405 31.0487 31.6138 30.6834 33.5659 30.6834ZM15.5088 39.623L12.6334 40.3062C12.7582 40.7564 12.8442 41.7792 12.8442 42.8068V55.4452H15.6929V47.611C16.3193 47.031 17.2243 46.6073 17.9157 46.6073C18.7111 46.6073 19.0018 47.0123 19.0018 48.0982V55.4451H21.7495V47.8042C21.7495 46.7528 21.6871 46.3954 21.474 45.773C21.1361 44.8117 20.0519 44.213 18.6871 44.213C17.598 44.213 16.3819 44.6845 15.6515 45.3916C15.6515 45.2618 15.6928 44.8115 15.6928 44.4698V42.298C15.6928 41.2466 15.6284 40.2242 15.5088 39.623ZM70.0447 39.6457L67.1755 40.3084C67.2794 41.2936 67.3184 42.1698 67.3184 43.5975V51.7548C67.3184 53.3122 67.36 53.6537 67.5732 54.2046C67.9111 55.1262 68.8699 55.701 70.0682 55.701C70.6739 55.701 71.2592 55.5949 71.7401 55.4042L71.2592 53.6963C71.1136 53.736 71.0534 53.7362 70.9468 53.7362C70.7181 53.7362 70.4845 53.6275 70.3779 53.4394C70.2142 53.1402 70.1932 52.883 70.1932 51.0052V42.4851C70.1932 40.9542 70.1487 40.2444 70.0447 39.6457ZM7.25495 40.2868C4.90774 40.2868 2.81285 41.5688 1.67701 43.7247C1.01159 45.0039 0.694674 46.4791 0.694674 48.3358C0.694674 50.5155 1.28182 52.3089 2.45671 53.6516C3.64981 55.0421 5.20173 55.6988 7.21373 55.6988C8.87209 55.6988 10.1041 55.2724 11.2583 54.3137L9.91679 52.4381C9.059 53.1399 8.27916 53.3942 7.42398 53.3942C6.16332 53.3942 5.20184 52.8195 4.61428 51.7283C4.17241 50.9179 4.00847 49.7845 4.00847 47.7584C4.00847 46.0316 4.26051 44.7895 4.82457 43.9369C5.34703 43.145 6.309 42.6575 7.29674 42.6575C8.11294 42.6575 8.88769 42.9355 9.6233 43.4891L10.9408 41.4652C10.1428 40.7608 8.69733 40.2894 7.25203 40.2894L7.25495 40.2868ZM36.8458 44.2352L34.3557 44.9604C34.6052 45.6887 34.7246 46.584 34.7246 47.5242V55.4457H37.5349V47.7178C38.1899 47.1245 38.9203 46.7351 39.4843 46.7351C40.2174 46.7351 40.4276 47.0977 40.4276 48.3345V55.4456H43.1959V47.4609C43.1959 46.7776 43.131 46.3088 42.9829 45.9036C42.6502 44.9608 41.6026 44.3225 40.4069 44.3225C39.7779 44.3225 39.0448 44.492 38.4808 44.7887C38.0181 45.0482 37.6622 45.3074 37.2463 45.6014C37.2463 45.1538 37.0979 44.6828 36.8458 44.2352ZM47.7863 44.2352L45.2886 44.9604C45.5382 45.6887 45.6625 46.584 45.6625 47.5242V55.4457H48.4727V47.7178C49.12 47.1245 49.8554 46.7351 50.4195 46.7351C51.1525 46.7351 51.3633 47.0977 51.3633 48.3345V55.4456H54.1288V47.4609C54.1288 46.7776 54.0714 46.3088 53.918 45.9036C53.5853 44.9608 52.5356 44.3225 51.3399 44.3225C50.7186 44.3225 49.983 44.492 49.4138 44.7887C48.9563 45.0482 48.5973 45.3074 48.1788 45.6014C48.1788 45.1538 48.0333 44.6828 47.7863 44.2352ZM28.5555 44.2778C27.5678 44.2778 26.6685 44.4682 25.6209 44.9211C24.8671 45.2389 24.4461 45.4486 23.8768 45.8141L25.0754 47.8663C26.2243 47.0744 27.2715 46.6245 28.1736 46.6245C29.2029 46.6245 29.4341 47.0295 29.4341 48.2505V48.6956C29.2028 48.6744 29.0134 48.674 28.8055 48.674C25.3899 48.674 23.6481 49.8715 23.6481 52.4353C23.6481 54.6097 24.9481 55.8489 27.3369 55.8489C28.2181 55.8489 28.9716 55.6399 29.4967 55.2532C29.7046 55.1022 29.936 54.8902 30.1465 54.673C30.4168 55.2292 31.0044 55.7219 31.6542 56L33.1435 54.2467C32.3247 53.627 32.1378 53.1822 32.1378 52.0063V51.8153L32.1976 48.1393C32.2236 46.9713 32.1561 46.6244 32.008 46.1795C31.5921 44.9585 30.3516 44.2778 28.5555 44.2778ZM60.7891 44.2795C59.3647 44.2795 58.2962 44.7453 57.415 45.7543C56.474 46.819 56.0762 48.1224 56.0762 50.0902C56.0762 53.5228 58.0648 55.7447 61.1451 55.7447C62.6553 55.7447 63.9523 55.2545 65.1896 54.2295L64.0981 52.5188C63.2403 53.2445 62.3409 53.61 61.3765 53.61C59.9313 53.61 59.1124 52.6461 59.1124 50.9643V50.8768H65.3146V50.2147C65.3146 47.9344 64.8751 46.4588 63.89 45.4366C63.2012 44.7083 62.0237 44.2795 60.7891 44.2795ZM60.8282 46.3689C61.3975 46.3689 61.7947 46.5863 62.0676 47.0127C62.3197 47.4179 62.4007 47.847 62.4007 48.6575V48.7842H59.1542V48.7449C59.1542 47.2274 59.7625 46.3689 60.8282 46.3689ZM29.2651 50.6583H29.3949L29.3509 53.0072C28.9324 53.4813 28.4095 53.7568 27.8844 53.7568C27.1696 53.7568 26.6527 53.1823 26.6527 52.3268C26.6527 51.0291 27.3182 50.6583 29.2651 50.6583Z" fill="#566171"></path>
</svg>