<svg width="149" height="24" viewBox="0 0 149 24" fill="none" xmlns="http://www.w3.org/2000/svg">
<path d="M82.4284 3.47463H77.8687L84.7082 14.1851V14.2567V20.7761H86.6623H88.6527V14.2567V14.1851L95.4559 3.47463H90.8963L86.6623 10.7463L82.4284 3.47463ZM59.1597 12C59.1597 6.94925 63.3213 2.82985 68.4237 2.82985C73.5624 2.82985 77.6878 6.94925 77.6878 12C77.6878 17.0507 73.5624 21.1701 68.4237 21.1701C63.3213 21.1701 59.1597 17.0507 59.1597 12ZM68.4237 17.803C71.2826 17.803 73.5986 15.2239 73.5986 12C73.5986 8.77612 71.2826 6.19701 68.4237 6.19701C65.5649 6.19701 63.2489 8.77612 63.2489 12C63.2489 15.2239 65.5649 17.803 68.4237 17.803ZM58.1826 3.47463V6.66269H52.7183V20.7761H48.81V6.66269H48.8462H43.3819V3.47463H58.1826ZM134.864 16.8716L133.381 20.7761H128.785L136.022 3.47463H138.338H140.871L148.109 20.7761H143.405L141.957 16.8716H138.338H134.864ZM138.338 13.9343H140.871L138.338 7.62985L135.986 13.9343H138.338ZM130.124 3.47463V6.66269H124.696V20.7761H120.787V6.66269H115.359V3.47463H130.124ZM95.6369 12C95.6369 6.94925 99.7985 2.82985 104.901 2.82985C110.04 2.82985 114.165 6.94925 114.165 12C114.165 17.0507 110.04 21.1701 104.901 21.1701C99.7985 21.1701 95.6369 17.0507 95.6369 12ZM104.901 17.803C107.76 17.803 110.112 15.2239 110.112 12C110.112 8.77612 107.76 6.19701 104.901 6.19701C102.042 6.19701 99.7261 8.77612 99.7261 12C99.7261 15.2239 102.042 17.803 104.901 17.803ZM18.1229 22.7821C16.1687 21.5642 14.7212 17.3731 14.7212 12.4299C14.7212 12.2507 14.7212 12.0716 14.7212 11.8925C9.29309 11.0687 5.38482 8.7403 5.31244 5.98209L5.27625 6.01791C3.93731 7.66567 3.17737 9.56418 3.17737 11.5701C3.17737 17.4806 9.76352 22.3522 18.0867 22.7821H18.1229ZM0.68042 12C0.68042 5.37313 9.00358 0 19.2809 0C29.5582 0 37.9175 5.37313 37.9175 12C37.9175 18.6269 29.5582 24 19.2809 24C9.00358 24 0.68042 18.6269 0.68042 12ZM19.2809 1.7194C21.2712 1.7194 22.972 4.72836 23.5872 8.84776C27.4593 8.27463 30.1372 6.91343 30.1372 5.30149C30.1372 3.15224 25.288 1.43284 19.2809 1.43284C13.2737 1.43284 8.42458 3.15224 8.42458 5.30149C8.42458 6.91343 11.1387 8.27463 14.9746 8.84776C15.6259 4.72836 17.2906 1.7194 19.2809 1.7194ZM20.4751 22.7821C28.8344 22.3522 35.3844 17.4806 35.3844 11.5701C35.3844 9.56418 34.6245 7.66567 33.3217 6.01791L33.2855 5.98209C33.1769 8.7403 29.2687 11.0687 23.8405 11.8925C23.8405 12.0716 23.8405 12.2507 23.8405 12.4299C23.8405 17.3731 22.393 21.5642 20.4751 22.7821ZM19.2809 9.17015C20.1856 9.17015 21.0541 9.13433 21.8864 9.06269C21.4521 6.41194 20.4751 4.51343 19.2809 4.51343C18.1229 4.51343 17.1096 6.41194 16.7116 9.06269C17.5439 9.13433 18.4124 9.17015 19.2809 9.17015ZM19.2809 19.0567C20.8008 19.0567 21.995 15.9761 22.0673 12.1075C21.1988 12.1791 20.2218 12.2507 19.2809 12.2507C18.34 12.2507 17.3991 12.1791 16.4944 12.1075H16.5306C16.5668 15.9761 17.7972 19.0567 19.2809 19.0567Z" fill="#566171"></path>
</svg>