<?xml version="1.0" encoding="UTF-8" standalone="no"?>
<!-- Created with Inkscape (http://www.inkscape.org/) -->

<svg
   width="50mm"
   height="70mm"
   viewBox="0 0 50 70"
   version="1.1"
   id="svg1"
   xml:space="preserve"
   inkscape:version="1.4 (86a8ad7, 2024-10-11)"
   sodipodi:docname="CSS.svg"
   xmlns:inkscape="http://www.inkscape.org/namespaces/inkscape"
   xmlns:sodipodi="http://sodipodi.sourceforge.net/DTD/sodipodi-0.dtd"
   xmlns="http://www.w3.org/2000/svg"
   xmlns:svg="http://www.w3.org/2000/svg"><sodipodi:namedview
     id="namedview1"
     pagecolor="#ffffff"
     bordercolor="#000000"
     borderopacity="0.25"
     inkscape:showpageshadow="2"
     inkscape:pageopacity="0.0"
     inkscape:pagecheckerboard="0"
     inkscape:deskcolor="#d1d1d1"
     inkscape:document-units="mm"
     inkscape:zoom="0.72604517"
     inkscape:cx="431.79132"
     inkscape:cy="236.2112"
     inkscape:window-width="1920"
     inkscape:window-height="1017"
     inkscape:window-x="-8"
     inkscape:window-y="-8"
     inkscape:window-maximized="1"
     inkscape:current-layer="g1" /><defs
     id="defs1" /><g
     inkscape:label="Calque 1"
     inkscape:groupmode="layer"
     id="layer1"><g
       id="g1"
       transform="matrix(1.4300006,0,0,1.4300006,-33.110598,-24.813085)"><g
         id="g6"
         inkscape:label="CSS"
         style="display:inline"
         transform="translate(-56.113926,0.00329812)"><path
           d="m 90.945371,23.490117 1.984186,0.599754 q -0.199918,0.834658 -0.629742,1.394428 -0.429823,0.55977 -1.069561,0.844653 -0.634739,0.284883 -1.619335,0.284883 -1.19451,0 -1.954198,-0.344858 -0.754691,-0.349857 -1.304465,-1.224498 -0.549775,-0.874641 -0.549775,-2.239081 0,-1.819253 0.964605,-2.793853 0.969602,-0.979599 2.738876,-0.979599 1.384432,0 2.174108,0.559771 0.794673,0.55977 1.179516,1.719294 l -1.99918,0.444818 q -0.104957,-0.334863 -0.21991,-0.489799 -0.189922,-0.259894 -0.464809,-0.399836 -0.274887,-0.139943 -0.614748,-0.139943 -0.769684,0 -1.179516,0.619746 -0.309873,0.459811 -0.309873,1.444407 0,1.2195 0.369849,1.674313 0.369848,0.449816 1.039573,0.449816 0.649733,0 0.979598,-0.364851 0.334863,-0.36485 0.484801,-1.059565 z m 2.688897,0.569766 2.154116,-0.134944 q 0.06997,0.524784 0.284883,0.799672 0.349856,0.444817 0.99959,0.444817 0.484801,0 0.744694,-0.224908 0.264891,-0.229905 0.264891,-0.529782 0,-0.284883 -0.249897,-0.509791 -0.249898,-0.224908 -1.159524,-0.424826 -1.489389,-0.334862 -2.124129,-0.889635 -0.639737,-0.554772 -0.639737,-1.414419 0,-0.564769 0.324867,-1.064563 0.329864,-0.504793 0.984595,-0.789676 0.65973,-0.289882 1.80426,-0.289882 1.404424,0 2.139122,0.524785 0.739697,0.519787 0.879641,1.659319 l -2.134126,0.124949 q -0.08497,-0.494797 -0.359852,-0.719705 -0.269889,-0.224907 -0.749693,-0.224907 -0.394838,0 -0.594756,0.16993 -0.199918,0.164932 -0.199918,0.404834 0,0.174928 0.164933,0.314871 0.159934,0.14494 0.759688,0.269889 1.484391,0.319869 2.124128,0.649733 0.644736,0.324867 0.934617,0.809668 0.294879,0.484801 0.294879,1.084555 0,0.704711 -0.38984,1.299467 -0.38984,0.594756 -1.089553,0.904628 -0.699713,0.304875 -1.764276,0.304875 -1.869233,0 -2.588938,-0.719704 -0.719704,-0.719705 -0.814665,-1.82925 z m 7.391962,0 2.15412,-0.134944 q 0.07,0.524784 0.28488,0.799672 0.34986,0.444817 0.99959,0.444817 0.4848,0 0.7447,-0.224908 0.26489,-0.229905 0.26489,-0.529782 0,-0.284883 -0.2499,-0.509791 -0.2499,-0.224908 -1.15952,-0.424826 -1.48939,-0.334862 -2.12413,-0.889635 -0.63974,-0.554772 -0.63974,-1.414419 0,-0.564769 0.32487,-1.064563 0.32986,-0.504793 0.98459,-0.789676 0.65973,-0.289882 1.80426,-0.289882 1.40443,0 2.13913,0.524785 0.73969,0.519787 0.87964,1.659319 l -2.13413,0.124949 q -0.085,-0.494797 -0.35985,-0.719705 -0.26989,-0.224907 -0.74969,-0.224907 -0.39484,0 -0.59476,0.16993 -0.19992,0.164932 -0.19992,0.404834 0,0.174928 0.16493,0.314871 0.15994,0.14494 0.75969,0.269889 1.48439,0.319869 2.12413,0.649733 0.64474,0.324867 0.93462,0.809668 0.29488,0.484801 0.29488,1.084555 0,0.704711 -0.38984,1.299467 -0.38984,0.594756 -1.08956,0.904628 -0.69971,0.304875 -1.76427,0.304875 -1.86924,0 -2.58894,-0.719704 -0.7197,-0.719705 -0.81467,-1.82925 z"
           id="text7-5"
           style="font-weight:900;font-size:10.2358px;font-family:Arial;-inkscape-font-specification:'Arial Heavy';stroke-width:0.147631"
           aria-label="CSS" /><path
           d="M 83.711203,61.050808 81.000352,28.903932 h 31.475288 l -2.93594,32.138429 -12.267473,3.573726 z m 20.903427,-5.400776 2.03708,-20.131516 H 86.759539 l 0.622043,3.96875 h 14.854678 l -0.334,3.96875 H 87.448707 l 0.414034,3.96875 h 13.566539 l -0.37986,4.894791 -4.046288,1.20678 -4.758129,-0.984829 -0.489754,-3.264658 H 87.81645 l 0.64381,6.327485 8.547243,2.241297 z"
           style="display:inline;fill:#29a8e0;fill-opacity:1"
           id="path1-1"
           inkscape:label="CSS2"
           sodipodi:nodetypes="ccccccccccccccccccccccc" /><path
           d="m 83.722019,61.028432 -2.721667,-32.1245 h 31.500678 l -2.94895,32.209814 -12.521674,3.483267 z m 23.339791,-1.849813 2.58892,-27.893437 H 97.030406 v 4.248156 H 86.821185 l 0.535797,3.953844 9.673424,8.4e-5 v 3.9139 h -9.594403 l 0.465734,4.0236 h 9.128669 v 6.085416 l -4.847552,-1.009019 -0.385314,-3.232161 -4.017185,0.01537 0.705998,6.341263 8.544053,2.257342 V 61.9768 Z"
           style="display:inline;fill:#0070ba;fill-opacity:1"
           id="path1-18"
           inkscape:label="CSS1"
           sodipodi:nodetypes="ccccccccccccccccccccccccc" /></g></g></g></svg>
