<svg viewBox="0 0 41 31" xmlns="http://www.w3.org/2000/svg" style="max-width: 41px">
    <path d="M40.286 21.2c-.125-5.604-2.17-10.852-5.791-14.83C30.757 2.261 25.787 0 20.5 0 15.213 0 10.243 2.262 6.505 6.37 2.885 10.347.84 15.595.715 21.2c-.426.257-.715.754-.715 1.324v6.227c0 .831.616 1.508 1.373 1.508h38.254c.757 0 1.373-.677 1.373-1.508v-6.227c0-.57-.289-1.067-.714-1.323zm-8.496 3.707v-2.432h5.756v2.432H31.79zm-30.462 0v-2.383c0-.027.02-.049.045-.049h.752v2.432h-.797zM3.2 14.662L5.9 15.89a18.444 18.444 0 0 0-.926 5.125H2.05a21.911 21.911 0 0 1 1.15-6.354zM6.99 7.934l2.067 2.27a17.337 17.337 0 0 0-2.646 4.34l-2.702-1.23c.83-1.986 1.942-3.8 3.281-5.38zm5.836-4.637l1.12 2.969a15.59 15.59 0 0 0-3.95 2.907l-2.067-2.27a18.52 18.52 0 0 1 4.897-3.606zm20.245 3.605l-2.067 2.27a15.591 15.591 0 0 0-3.95-2.906l1.12-2.97a18.526 18.526 0 0 1 4.897 3.606zm4.22 6.412l-2.702 1.23a17.337 17.337 0 0 0-2.646-4.34l2.067-2.27a20.595 20.595 0 0 1 3.281 5.38zm1.66 7.702h-2.925a18.445 18.445 0 0 0-.926-5.125l2.7-1.23a21.912 21.912 0 0 1 1.15 6.355zm-14.245 3.891v-2.432h5.756v2.432h-5.756zm-7.084 0v-2.432h5.756v2.432h-5.756zm-7.084 0v-2.432h5.756v2.432h-5.756zm13.42-3.891c-.195-1.703-1.057-2.613-1.767-3.361-.481-.508-.897-.947-1.051-1.554a.696.696 0 0 0-.488-.515.629.629 0 0 0-.646.223c-.086.105-1.958 2.422-2.255 5.207H14.1c.203-3.98 2.068-5.693 3.725-7.214 1.052-.965 2.06-1.89 2.455-3.237.746.757 1.289 1.817 1.642 2.673.53 1.289.762 2.426.764 2.437a.7.7 0 0 0 .5.555.633.633 0 0 0 .67-.26c.036-.05.671-.944 1.142-2.107.916 1.327 2.405 3.943 2.608 7.153h-3.648zm-1.344 0h-3.522c.181-1.333.81-2.567 1.296-3.354.263.391.576.721.883 1.045.622.656 1.172 1.24 1.343 2.309zm6.322 0c-.287-5.237-3.566-8.96-3.712-9.123a.624.624 0 0 0-.656-.19.705.705 0 0 0-.465.542c-.11.54-.325 1.08-.549 1.54-.532-1.63-1.602-4.076-3.455-5.14a.613.613 0 0 0-.651.022.748.748 0 0 0-.32.625c0 1.413-.904 2.242-2.155 3.39-1.79 1.643-3.995 3.67-4.204 8.334H6.303C6.651 12.743 12.886 6.13 20.5 6.13c7.614 0 13.849 6.613 14.197 14.886h-5.76zM25.83 5.704a14.24 14.24 0 0 0-4.665-1.017V1.474a16.92 16.92 0 0 1 5.783 1.263L25.83 5.704zm-5.993-1.017a14.24 14.24 0 0 0-4.665 1.017l-1.118-2.967a16.918 16.918 0 0 1 5.783-1.263v3.213zM3.454 22.475H9.21v2.432H3.454v-2.432zm9.298 3.892v2.432H6.996v-2.432h5.756zm1.328 0h5.756v2.432H14.08v-2.432zm7.084 0h5.756v2.432h-5.756v-2.432zm7.084 0h5.756v2.432h-5.756v-2.432zm10.627-3.892h.752c.025 0 .045.022.045.049v2.383h-.797v-2.432zM1.328 28.751v-2.384h4.34v2.432H1.372c-.025 0-.045-.022-.045-.048zm38.3.048h-4.295v-2.432h4.339v2.384c0 .026-.02.048-.045.048z" fill="#000" fill-rule="nonzero"></path>
</svg>