<svg viewBox="0 0 29 29" xmlns="http://www.w3.org/2000/svg" style="max-width: 29px">
    <g fill="#000" fill-rule="nonzero">
        <path d="M6.856 22.144a.492.492 0 0 0-.695 0l-.017.017a.492.492 0 1 0 .695.695l.017-.017a.492.492 0 0 0 0-.695z"></path>
        <path d="M28.834 9.664L25.72 6.549l-1.66-1.66a.567.567 0 0 0-.8.801l.173.174 4.2 4.2-6.538 6.54-4.968-1.19-2.54-2.54-1.19-4.968 6.54-6.539 1.259 1.26a.565.565 0 0 0 .8 0 .566.566 0 0 0 0-.801L19.337.166a.566.566 0 0 0-.644-.11l-.02.009-.004.002a.565.565 0 0 0-.133.099L11.37 7.33a.566.566 0 0 0-.15.532l1.227 5.123L.736 24.696A2.505 2.505 0 0 0 0 26.48c0 .675.262 1.309.736 1.784A2.505 2.505 0 0 0 2.52 29c.675 0 1.309-.262 1.784-.736l11.711-11.712 5.123 1.227a.566.566 0 0 0 .532-.15l7.164-7.164a.566.566 0 0 0 0-.801zM3.566 27.322c-.25.251-.586.39-.944.39a1.326 1.326 0 0 1-1.333-1.334c0-.358.138-.693.389-.944l8.678-8.678.56.559-3.024 3.023a.544.544 0 0 0 .77.77l3.023-3.023.56.559-8.679 8.678zm9.461-9.278l-2.071-2.071 1.795-1.795 2.071 2.071-1.795 1.795z"></path>
        <path d="M20.849 6.151a.517.517 0 0 0-.73 0L17.17 9.1l-.02.02a.516.516 0 1 0 .73.73l2.968-2.967a.517.517 0 0 0 0-.73zM22.849 10.151a.517.517 0 0 0-.73 0l-2.968 2.967a.517.517 0 0 0 .73.73l2.968-2.966a.517.517 0 0 0 0-.73zM19.849 4.151a.517.517 0 0 0-.73 0L16.17 7.098l-.02.02a.516.516 0 0 0 .73.731l2.968-2.967a.516.516 0 0 0 0-.73zM22.856 3.16l-.017-.016a.492.492 0 1 0-.695.696l.017.016a.49.49 0 0 0 .695 0 .492.492 0 0 0 0-.696z"></path>
    </g>
</svg>