<svg viewBox="0 0 30 30" xmlns="http://www.w3.org/2000/svg" style="max-width: 30px">
    <g fill="#000" fill-rule="nonzero">
        <path d="M15 1C7.28 1 1 7.28 1 15s6.28 14 14 14 14-6.28 14-14S22.72 1 15 1zm0 27.067C7.795 28.067 1.933 22.205 1.933 15S7.795 1.933 15 1.933 28.067 7.795 28.067 15 22.205 28.067 15 28.067z" stroke="#000"></path>
        <path d="M15.556 5a.453.453 0 0 0-.445.462v10.615H8.444a.453.453 0 0 0-.444.461c0 .256.2.462.444.462h7.112a.453.453 0 0 0 .444-.462V5.462c0-.256-.2-.462-.444-.462z"></path>
    </g>
</svg>