<?xml version="1.0" encoding="UTF-8" standalone="no"?>
<!-- Created with Inkscape (http://www.inkscape.org/) -->

<svg
   width="50mm"
   height="70mm"
   viewBox="0 0 50 70"
   version="1.1"
   id="svg1"
   xml:space="preserve"
   inkscape:version="1.4 (86a8ad7, 2024-10-11)"
   sodipodi:docname="HTML.svg"
   xmlns:inkscape="http://www.inkscape.org/namespaces/inkscape"
   xmlns:sodipodi="http://sodipodi.sourceforge.net/DTD/sodipodi-0.dtd"
   xmlns="http://www.w3.org/2000/svg"
   xmlns:svg="http://www.w3.org/2000/svg"><sodipodi:namedview
     id="namedview1"
     pagecolor="#ffffff"
     bordercolor="#000000"
     borderopacity="0.25"
     inkscape:showpageshadow="2"
     inkscape:pageopacity="0.0"
     inkscape:pagecheckerboard="0"
     inkscape:deskcolor="#d1d1d1"
     inkscape:document-units="mm"
     inkscape:zoom="0.72604517"
     inkscape:cx="431.79132"
     inkscape:cy="236.2112"
     inkscape:window-width="1920"
     inkscape:window-height="1017"
     inkscape:window-x="-8"
     inkscape:window-y="-8"
     inkscape:window-maximized="1"
     inkscape:current-layer="g1" /><defs
     id="defs1" /><g
     inkscape:label="Calque 1"
     inkscape:groupmode="layer"
     id="layer1"><g
       id="g1"
       transform="matrix(1.4300006,0,0,1.4300006,-33.110598,-24.813085)"><g
         id="g5"
         inkscape:label="HTML"
         style="display:inline"
         transform="translate(-3.0836187,-1.7088209e-4)"><path
           d="M 30.522566,61.0508 27.740995,28.903925 h 31.298938 l -2.721828,32.279234 -12.491714,3.436044 z m 21.109036,-5.466478 1.04821,-12.128306 H 38.137853 l -0.33651,-3.96875 h 15.091459 l 0.326275,-4.233334 H 33.728105 l 0.831371,12.170834 H 48.23172 l -0.533322,5.057154 -4.300514,1.261209 -4.466306,-1.154586 -0.33073,-3.311694 h -3.606791 l 0.292935,6.217708 8.280604,2.390765 z"
           style="display:inline;fill:#f16529;fill-opacity:1"
           id="path1-14"
           sodipodi:nodetypes="ccccccccccccccccccccccc" /><path
           d="M 30.554,60.970441 27.750849,28.903932 H 59.108264 L 56.124197,61.164136 43.749869,64.622683 Z M 53.880561,59.180614 56.462453,31.285182 H 43.429519 v 3.96875 h -9.704682 l 0.781855,12.170834 h 8.922758 v 6.365207 l -4.513706,-1.244055 -0.186713,-3.136777 -3.751747,-0.15582 0.305693,6.25833 8.146473,2.306992 v 4.200249 z"
           style="display:inline;fill:#e44d26;fill-opacity:1"
           id="path1-16"
           sodipodi:nodetypes="ccccccccccccccccccccc" /><path
           d="m 28.332642,19.032288 h 2.264071 v 2.563948 h 2.473985 v -2.563948 h 2.274067 v 7.326994 h -2.274067 v -2.963784 h -2.473985 v 2.963784 h -2.264071 z m 8.001717,0 h 6.882176 v 1.809258 h -2.309052 v 5.517736 h -2.264071 v -5.517736 h -2.309053 z m 7.881766,0 h 2.978778 l 1.149528,4.458171 1.144531,-4.458171 h 2.968781 v 7.326994 h -1.849241 v -5.587708 l -1.434411,5.587708 h -1.674313 l -1.429414,-5.587708 v 5.587708 h -1.854239 z m 9.686026,0 h 2.264071 v 5.522734 h 3.53355 v 1.80426 h -5.797621 z"
           id="text7"
           style="font-weight:900;font-size:10.2358px;font-family:Arial;-inkscape-font-specification:'Arial Heavy';stroke-width:0.147631"
           aria-label="HTML" /></g></g></g></svg>
