<?xml version="1.0" encoding="UTF-8" standalone="no"?>
<!-- Created with Inkscape (http://www.inkscape.org/) -->

<svg
   width="50mm"
   height="70mm"
   viewBox="0 0 50 70"
   version="1.1"
   id="svg1"
   xml:space="preserve"
   inkscape:version="1.4 (86a8ad7, 2024-10-11)"
   sodipodi:docname="JS.svg"
   xmlns:inkscape="http://www.inkscape.org/namespaces/inkscape"
   xmlns:sodipodi="http://sodipodi.sourceforge.net/DTD/sodipodi-0.dtd"
   xmlns="http://www.w3.org/2000/svg"
   xmlns:svg="http://www.w3.org/2000/svg"><sodipodi:namedview
     id="namedview1"
     pagecolor="#ffffff"
     bordercolor="#000000"
     borderopacity="0.25"
     inkscape:showpageshadow="2"
     inkscape:pageopacity="0.0"
     inkscape:pagecheckerboard="0"
     inkscape:deskcolor="#d1d1d1"
     inkscape:document-units="mm"
     inkscape:zoom="0.72604517"
     inkscape:cx="431.79132"
     inkscape:cy="236.2112"
     inkscape:window-width="1920"
     inkscape:window-height="1017"
     inkscape:window-x="-8"
     inkscape:window-y="-8"
     inkscape:window-maximized="1"
     inkscape:current-layer="g1" /><defs
     id="defs1" /><g
     inkscape:label="Calque 1"
     inkscape:groupmode="layer"
     id="layer1"><g
       id="g1"
       transform="matrix(1.4300006,0,0,1.4300006,-33.110598,-24.813085)"><g
         id="g7"
         inkscape:label="JS"
         transform="translate(-109.02789,0.08282112)"><path
           d="m 146.48071,19.156895 h 2.26907 v 3.983366 q 0,1.254485 -0.22491,1.909216 -0.21991,0.654732 -0.89463,1.109545 -0.66973,0.454813 -1.7193,0.454813 -1.10954,0 -1.71929,-0.299877 -0.60975,-0.299877 -0.94462,-0.874641 -0.32986,-0.579762 -0.38984,-1.429413 l 2.16412,-0.294879 q 0.005,0.484801 0.085,0.719704 0.08,0.234904 0.26989,0.379845 0.12995,0.09496 0.36985,0.09496 0.37984,0 0.55477,-0.279885 0.17993,-0.284884 0.17993,-0.954609 z m 3.38361,4.902988 2.15412,-0.134944 q 0.07,0.524784 0.28488,0.799672 0.34985,0.444817 0.99959,0.444817 0.4848,0 0.74469,-0.224908 0.26489,-0.229905 0.26489,-0.529782 0,-0.284883 -0.24989,-0.509791 -0.2499,-0.224908 -1.15953,-0.424826 -1.48939,-0.334862 -2.12413,-0.889635 -0.63973,-0.554772 -0.63973,-1.414419 0,-0.564769 0.32486,-1.064563 0.32987,-0.504793 0.9846,-0.789676 0.65973,-0.289882 1.80426,-0.289882 1.40442,0 2.13912,0.524785 0.7397,0.519787 0.87964,1.659319 l -2.13412,0.124949 q -0.085,-0.494797 -0.35986,-0.719705 -0.26989,-0.224907 -0.74969,-0.224907 -0.39484,0 -0.59476,0.16993 -0.19991,0.164932 -0.19991,0.404834 0,0.174928 0.16493,0.314871 0.15993,0.14494 0.75969,0.269889 1.48439,0.319869 2.12413,0.649733 0.64473,0.324867 0.93461,0.809668 0.29488,0.484801 0.29488,1.084555 0,0.704711 -0.38984,1.299467 -0.38984,0.594756 -1.08955,0.904628 -0.69971,0.304875 -1.76428,0.304875 -1.86923,0 -2.58894,-0.719704 -0.7197,-0.719705 -0.81466,-1.82925 z"
           id="text7-5-3"
           style="font-weight:900;font-size:10.2358px;font-family:Arial;-inkscape-font-specification:'Arial Heavy';stroke-width:0.147631"
           aria-label="JS" /><path
           d="m 136.69514,61.096678 -2.74695,-32.457327 h 31.47241 l -2.97069,32.409409 -0.0451,0.0193 -12.84296,3.36967 z m 21.03438,-5.527799 1.85833,-20.314947 h -20.18382 l 0.334,3.96875 h 15.34583 l -1.32362,13.191824 -4.19839,1.165468 -4.50937,-1.159052 -0.35572,-3.144073 h -3.94554 l 0.39665,6.34798 8.41398,2.236471 z"
           style="display:inline;fill:#8acf17;fill-opacity:1"
           id="path1-5"
           inkscape:label="JS2"
           sodipodi:nodetypes="cccccccccccccccccccc" /><path
           style="display:inline;opacity:1;fill:#63a814;fill-opacity:1"
           d="M 149.55214,64.457041 136.66955,60.996264 133.90871,28.69418 h 31.43915 l -2.91119,32.302084 z m 10.3155,-5.584704 2.64836,-27.587155 h -12.96386 v 3.96875 h -10.07887 l 0.32708,3.96875 h 9.75179 v 14.32316 l -4.52184,-1.158326 -0.3212,-3.110667 h -3.91214 l 0.34459,6.359793 8.41059,2.26073 v 3.814894 z"
           id="path2"
           sodipodi:nodetypes="ccccccccccccccccccccc"
           inkscape:label="JS1" /></g></g></g></svg>
